<svg width="18" height="16" viewBox="0 0 18 16" fill="none" xmlns="http://www.w3.org/2000/svg">
<path d="M6.42233 12.5833L8.175 14.9208C8.5875 15.4708 9.4125 15.4708 9.825 14.9208L11.5777 12.5833H14.5C16.0189 12.5833 17.25 11.3522 17.25 9.83325V4.33325C17.25 2.81434 16.0189 1.58325 14.5 1.58325H3.5C1.98108 1.58325 0.75 2.81434 0.75 4.33325V9.83325C0.75 11.3522 1.98108 12.5833 3.5 12.5833H6.42233Z" stroke="#A2A2A7" stroke-width="1.3" stroke-linecap="round" stroke-linejoin="round"/>
<path d="M9.16214 7.37929C9.25197 7.46912 9.25197 7.61395 9.16214 7.70379C9.07231 7.79362 8.92747 7.79362 8.83764 7.70379C8.74781 7.61395 8.74781 7.46912 8.83764 7.37929C8.92747 7.28945 9.07231 7.29037 9.16214 7.37929Z" stroke="#A2A2A7" stroke-width="1.3" stroke-linecap="round" stroke-linejoin="round"/>
<path d="M12.8289 7.37929C12.9187 7.46912 12.9187 7.61395 12.8289 7.70379C12.7391 7.79362 12.5942 7.79362 12.5044 7.70379C12.4146 7.61395 12.4146 7.46912 12.5044 7.37929C12.5942 7.28945 12.7391 7.29037 12.8289 7.37929Z" stroke="#A2A2A7" stroke-width="1.3" stroke-linecap="round" stroke-linejoin="round"/>
<path d="M5.49563 7.37929C5.58547 7.46912 5.58547 7.61395 5.49563 7.70379C5.4058 7.79362 5.26097 7.79362 5.17113 7.70379C5.0813 7.61395 5.0813 7.46912 5.17113 7.37929C5.26097 7.28945 5.4058 7.29037 5.49563 7.37929Z" stroke="#A2A2A7" stroke-width="1.3" stroke-linecap="round" stroke-linejoin="round"/>
</svg>
