<svg width="16" height="18" viewBox="0 0 16 18" fill="none" xmlns="http://www.w3.org/2000/svg">
<path d="M5.89893 14.8154V15.15C5.89893 16.3095 6.83943 17.25 7.99993 17.25C9.16043 17.25 10.1009 16.3095 10.1009 15.149V14.8145" stroke="white" stroke-width="1.3" stroke-linecap="round" stroke-linejoin="round"/>
<path d="M9.68032 3.27175V2.43025C9.68032 1.50258 8.92866 0.75 8.00007 0.75C7.07149 0.75 6.31982 1.50258 6.31982 2.43025V3.27175" stroke="white" stroke-width="1.3" stroke-linecap="round" stroke-linejoin="round"/>
<path d="M3.01592 7.33896C3.01592 5.04455 4.87584 3.18555 7.16934 3.18555H8.83125C11.1257 3.18555 12.9847 5.04546 12.9847 7.33896V9.90288C12.9847 10.3887 13.1781 10.8553 13.5218 11.199L14.1094 11.7866C14.4532 12.1304 14.6466 12.597 14.6466 13.0828C14.6466 14.0398 13.8711 14.8153 12.9141 14.8153H3.0865C2.1295 14.8153 1.354 14.0398 1.354 13.0828C1.354 12.597 1.54742 12.1304 1.89117 11.7866L2.47875 11.199C2.8225 10.8553 3.01592 10.3887 3.01592 9.90288V7.33896Z" stroke="white" stroke-width="1.3" stroke-linecap="round" stroke-linejoin="round"/>
</svg>
