<svg width="17" height="19" viewBox="0 0 17 19" fill="none" xmlns="http://www.w3.org/2000/svg">
<path d="M10.5278 17.9594L14.6941 17.0285C15.4572 16.8589 16 16.1786 16 15.3938V3.6062C16 2.82136 15.4572 2.14111 14.695 1.97151L10.5287 1.04064C9.48719 0.807923 8.5 1.60407 8.5 2.67627V16.3247C8.5 17.3959 9.48719 18.1921 10.5278 17.9594Z" stroke="white" stroke-width="1.3" stroke-linecap="round" stroke-linejoin="round"/>
<path d="M11.3123 8.5188V10.4032" stroke="white" stroke-width="1.3" stroke-linecap="round" stroke-linejoin="round"/>
<path d="M1 13.2485V15.1725C1 16.2136 1.83906 17.0568 2.875 17.0568H5.6875" stroke="white" stroke-width="1.3" stroke-linecap="round" stroke-linejoin="round"/>
<path d="M1 5.7111V3.82674C1 2.78563 1.83906 1.94238 2.875 1.94238H5.6875" stroke="white" stroke-width="1.3" stroke-linecap="round" stroke-linejoin="round"/>
<path d="M1 9.47974H5.6875" stroke="white" stroke-width="1.3" stroke-linecap="round" stroke-linejoin="round"/>
<path d="M3.81274 11.3642L5.68774 9.47982L3.81274 7.59546" stroke="white" stroke-width="1.3" stroke-linecap="round" stroke-linejoin="round"/>
</svg>
