<svg width="16" height="22" viewBox="0 0 16 22" fill="none" xmlns="http://www.w3.org/2000/svg">
<g style="mix-blend-mode:overlay">
<path d="M1.9509 7.01685C1.67173 6.49685 1.03806 6.3095 0.535557 6.59839C0.0330527 6.88728 -0.147996 7.54301 0.131173 8.06301C0.385197 8.53618 0.714774 9.41401 0.809618 10.3983C0.90372 11.3748 0.760098 12.3605 0.194065 13.1806C-0.140057 13.6646 -0.0317132 14.3373 0.436057 14.6831C0.903828 15.0288 1.55389 14.9167 1.88801 14.4327C2.83594 13.0594 3.00773 11.4992 2.88104 10.1845C2.7551 8.87753 2.3277 7.71869 1.9509 7.01685Z" fill="#E7E7E9"/>
</g>
<g style="mix-blend-mode:overlay">
<path d="M13.7809 0.558618C13.5041 0.0372721 12.8713 -0.153146 12.3675 0.133308C11.8637 0.419762 11.6797 1.07461 11.9565 1.59596C13.4194 4.35121 15.53 11.9103 11.9341 19.5012C11.6811 20.0353 11.8944 20.6806 12.4106 20.9424C12.9267 21.2043 13.5503 20.9835 13.8033 20.4494C17.7773 12.0602 15.4721 3.74367 13.7809 0.558618Z" fill="#E7E7E9"/>
</g>
<g style="mix-blend-mode:overlay">
<path d="M9.82313 2.451C9.56339 1.92032 8.93711 1.70802 8.42429 1.9768C7.91148 2.24559 7.70631 2.89367 7.96605 3.42435C9.1072 5.75582 10.7178 11.933 7.96363 17.6331C7.70655 18.1652 7.91495 18.8122 8.42911 19.0782C8.94327 19.3442 9.56848 19.1286 9.82556 18.5965C12.9758 12.0766 11.1422 5.14594 9.82313 2.451Z" fill="#E7E7E9"/>
</g>
<g style="mix-blend-mode:overlay">
<path d="M6.1257 4.78611C5.85797 4.2597 5.22855 4.05757 4.71986 4.33462C4.21117 4.61167 4.01584 5.263 4.28357 5.78941C4.69405 6.59647 5.2211 8.1133 5.37425 9.90869C5.52661 11.6947 5.30423 13.69 4.29883 15.5281C4.01566 16.0458 4.19165 16.703 4.69191 16.996C5.19218 17.289 5.82727 17.1069 6.11044 16.5892C7.37597 14.2756 7.62671 11.8157 7.44789 9.71927C7.26986 7.63223 6.66144 5.83946 6.1257 4.78611Z" fill="#E7E7E9"/>
</g>
</svg>
